<?xml version="1.0" encoding="UTF-8" standalone="no"?>
<!DOCTYPE svg PUBLIC "-//W3C//DTD SVG 1.1//EN"
 "http://www.w3.org/Graphics/SVG/1.1/DTD/svg11.dtd">
<!-- Generated by graphviz version 9.0.0 (20231125.0833)
 -->
<!-- Title: snakemake_dag Pages: 1 -->
<svg width="101pt" height="188pt"
 viewBox="0.00 0.00 101.25 188.00" xmlns="http://www.w3.org/2000/svg" xmlns:xlink="http://www.w3.org/1999/xlink">
<g id="graph0" class="graph" transform="scale(1 1) rotate(0) translate(4 184)">
<title>snakemake_dag</title>
<polygon fill="white" stroke="none" points="-4,4 -4,-184 97.25,-184 97.25,4 -4,4"/>
<!-- 0 -->
<g id="node1" class="node">
<title>0</title>
<path fill="none" stroke="#59d856" stroke-width="2" stroke-dasharray="5,2" d="M81.25,-36C81.25,-36 12,-36 12,-36 6,-36 0,-30 0,-24 0,-24 0,-12 0,-12 0,-6 6,0 12,0 12,0 81.25,0 81.25,0 87.25,0 93.25,-6 93.25,-12 93.25,-12 93.25,-24 93.25,-24 93.25,-30 87.25,-36 81.25,-36"/>
<text text-anchor="middle" x="46.62" y="-14.88" font-family="sans" font-size="10.00">samtools_index</text>
</g>
<!-- 1 -->
<g id="node2" class="node">
<title>1</title>
<path fill="none" stroke="#56d8a9" stroke-width="2" stroke-dasharray="5,2" d="M77.12,-108C77.12,-108 16.12,-108 16.12,-108 10.12,-108 4.12,-102 4.12,-96 4.12,-96 4.12,-84 4.12,-84 4.12,-78 10.12,-72 16.12,-72 16.12,-72 77.12,-72 77.12,-72 83.12,-72 89.12,-78 89.12,-84 89.12,-84 89.12,-96 89.12,-96 89.12,-102 83.12,-108 77.12,-108"/>
<text text-anchor="middle" x="46.62" y="-86.88" font-family="sans" font-size="10.00">samtools_sort</text>
</g>
<!-- 1&#45;&gt;0 -->
<g id="edge1" class="edge">
<title>1&#45;&gt;0</title>
<path fill="none" stroke="grey" stroke-width="2" d="M46.62,-71.34C46.62,-64.75 46.62,-57.08 46.62,-49.67"/>
<polygon fill="grey" stroke="grey" stroke-width="2" points="50.13,-49.93 46.63,-39.93 43.13,-49.93 50.13,-49.93"/>
</g>
<!-- 2 -->
<g id="node3" class="node">
<title>2</title>
<path fill="none" stroke="#d85656" stroke-width="2" stroke-dasharray="5,2" d="M66.25,-180C66.25,-180 27,-180 27,-180 21,-180 15,-174 15,-168 15,-168 15,-156 15,-156 15,-150 21,-144 27,-144 27,-144 66.25,-144 66.25,-144 72.25,-144 78.25,-150 78.25,-156 78.25,-156 78.25,-168 78.25,-168 78.25,-174 72.25,-180 66.25,-180"/>
<text text-anchor="middle" x="46.62" y="-158.88" font-family="sans" font-size="10.00">bwa_map</text>
</g>
<!-- 2&#45;&gt;1 -->
<g id="edge2" class="edge">
<title>2&#45;&gt;1</title>
<path fill="none" stroke="grey" stroke-width="2" d="M46.62,-143.34C46.62,-136.75 46.62,-129.08 46.62,-121.67"/>
<polygon fill="grey" stroke="grey" stroke-width="2" points="50.13,-121.93 46.63,-111.93 43.13,-121.93 50.13,-121.93"/>
</g>
</g>
</svg>
