<?xml version="1.0" encoding="UTF-8" standalone="no"?>
<!DOCTYPE svg PUBLIC "-//W3C//DTD SVG 1.1//EN"
 "http://www.w3.org/Graphics/SVG/1.1/DTD/svg11.dtd">
<!-- Generated by graphviz version 9.0.0 (20231125.0833)
 -->
<!-- Title: snakemake_dag Pages: 1 -->
<svg width="135pt" height="332pt"
 viewBox="0.00 0.00 135.12 332.00" xmlns="http://www.w3.org/2000/svg" xmlns:xlink="http://www.w3.org/1999/xlink">
<g id="graph0" class="graph" transform="scale(1 1) rotate(0) translate(4 328)">
<title>snakemake_dag</title>
<polygon fill="white" stroke="none" points="-4,4 -4,-328 131.12,-328 131.12,4 -4,4"/>
<!-- 0 -->
<g id="node1" class="node">
<title>0</title>
<path fill="none" stroke="#56c9d8" stroke-width="2" stroke-dasharray="5,2" d="M63.62,-36C63.62,-36 21.38,-36 21.38,-36 15.38,-36 9.38,-30 9.38,-24 9.38,-24 9.38,-12 9.38,-12 9.38,-6 15.38,0 21.38,0 21.38,0 63.62,0 63.62,0 69.62,0 75.62,-6 75.62,-12 75.62,-12 75.62,-24 75.62,-24 75.62,-30 69.62,-36 63.62,-36"/>
<text text-anchor="middle" x="42.5" y="-14.88" font-family="sans" font-size="10.00">plot_quals</text>
</g>
<!-- 1 -->
<g id="node2" class="node">
<title>1</title>
<path fill="none" stroke="#d8cb56" stroke-width="2" stroke-dasharray="5,2" d="M68.88,-108C68.88,-108 16.12,-108 16.12,-108 10.12,-108 4.12,-102 4.12,-96 4.12,-96 4.12,-84 4.12,-84 4.12,-78 10.12,-72 16.12,-72 16.12,-72 68.88,-72 68.88,-72 74.88,-72 80.88,-78 80.88,-84 80.88,-84 80.88,-96 80.88,-96 80.88,-102 74.88,-108 68.88,-108"/>
<text text-anchor="middle" x="42.5" y="-86.88" font-family="sans" font-size="10.00">bcftools_call</text>
</g>
<!-- 1&#45;&gt;0 -->
<g id="edge1" class="edge">
<title>1&#45;&gt;0</title>
<path fill="none" stroke="grey" stroke-width="2" d="M42.5,-71.34C42.5,-64.75 42.5,-57.08 42.5,-49.67"/>
<polygon fill="grey" stroke="grey" stroke-width="2" points="46,-49.93 42.5,-39.93 39,-49.93 46,-49.93"/>
</g>
<!-- 2 -->
<g id="node3" class="node">
<title>2</title>
<path fill="none" stroke="#56d873" stroke-width="2" stroke-dasharray="5,2" d="M73,-252C73,-252 12,-252 12,-252 6,-252 0,-246 0,-240 0,-240 0,-228 0,-228 0,-222 6,-216 12,-216 12,-216 73,-216 73,-216 79,-216 85,-222 85,-228 85,-228 85,-240 85,-240 85,-246 79,-252 73,-252"/>
<text text-anchor="middle" x="42.5" y="-230.88" font-family="sans" font-size="10.00">samtools_sort</text>
</g>
<!-- 2&#45;&gt;1 -->
<g id="edge2" class="edge">
<title>2&#45;&gt;1</title>
<path fill="none" stroke="grey" stroke-width="2" d="M34.83,-215.22C30.89,-205.11 26.5,-192.08 24.5,-180 21.89,-164.21 21.89,-159.79 24.5,-144 25.76,-136.36 27.99,-128.33 30.45,-120.91"/>
<polygon fill="grey" stroke="grey" stroke-width="2" points="33.69,-122.22 33.8,-111.62 27.11,-119.84 33.69,-122.22"/>
</g>
<!-- 4 -->
<g id="node5" class="node">
<title>4</title>
<path fill="none" stroke="#56d8a9" stroke-width="2" stroke-dasharray="5,2" d="M115.12,-180C115.12,-180 45.88,-180 45.88,-180 39.88,-180 33.88,-174 33.88,-168 33.88,-168 33.88,-156 33.88,-156 33.88,-150 39.88,-144 45.88,-144 45.88,-144 115.12,-144 115.12,-144 121.12,-144 127.12,-150 127.12,-156 127.12,-156 127.12,-168 127.12,-168 127.12,-174 121.12,-180 115.12,-180"/>
<text text-anchor="middle" x="80.5" y="-158.88" font-family="sans" font-size="10.00">samtools_index</text>
</g>
<!-- 2&#45;&gt;4 -->
<g id="edge5" class="edge">
<title>2&#45;&gt;4</title>
<path fill="none" stroke="grey" stroke-width="2" d="M52.09,-215.34C55.89,-208.34 60.35,-200.12 64.61,-192.28"/>
<polygon fill="grey" stroke="grey" stroke-width="2" points="67.64,-194.02 69.34,-183.56 61.49,-190.68 67.64,-194.02"/>
</g>
<!-- 3 -->
<g id="node4" class="node">
<title>3</title>
<path fill="none" stroke="#afd856" stroke-width="2" stroke-dasharray="5,2" d="M62.12,-324C62.12,-324 22.88,-324 22.88,-324 16.88,-324 10.88,-318 10.88,-312 10.88,-312 10.88,-300 10.88,-300 10.88,-294 16.88,-288 22.88,-288 22.88,-288 62.12,-288 62.12,-288 68.12,-288 74.12,-294 74.12,-300 74.12,-300 74.12,-312 74.12,-312 74.12,-318 68.12,-324 62.12,-324"/>
<text text-anchor="middle" x="42.5" y="-302.88" font-family="sans" font-size="10.00">bwa_map</text>
</g>
<!-- 3&#45;&gt;2 -->
<g id="edge4" class="edge">
<title>3&#45;&gt;2</title>
<path fill="none" stroke="grey" stroke-width="2" d="M42.5,-287.34C42.5,-280.75 42.5,-273.08 42.5,-265.67"/>
<polygon fill="grey" stroke="grey" stroke-width="2" points="46,-265.93 42.5,-255.93 39,-265.93 46,-265.93"/>
</g>
<!-- 4&#45;&gt;1 -->
<g id="edge3" class="edge">
<title>4&#45;&gt;1</title>
<path fill="none" stroke="grey" stroke-width="2" d="M70.91,-143.34C67.11,-136.34 62.65,-128.12 58.39,-120.28"/>
<polygon fill="grey" stroke="grey" stroke-width="2" points="61.51,-118.68 53.66,-111.56 55.36,-122.02 61.51,-118.68"/>
</g>
</g>
</svg>
