<?xml version="1.0" encoding="UTF-8" standalone="no"?>
<!DOCTYPE svg PUBLIC "-//W3C//DTD SVG 1.1//EN"
 "http://www.w3.org/Graphics/SVG/1.1/DTD/svg11.dtd">
<!-- Generated by graphviz version 9.0.0 (20231125.0833)
 -->
<!-- Title: snakemake_dag Pages: 1 -->
<svg width="135pt" height="260pt"
 viewBox="0.00 0.00 135.12 260.00" xmlns="http://www.w3.org/2000/svg" xmlns:xlink="http://www.w3.org/1999/xlink">
<g id="graph0" class="graph" transform="scale(1 1) rotate(0) translate(4 256)">
<title>snakemake_dag</title>
<polygon fill="white" stroke="none" points="-4,4 -4,-256 131.12,-256 131.12,4 -4,4"/>
<!-- 0 -->
<g id="node1" class="node">
<title>0</title>
<path fill="none" stroke="#d8a456" stroke-width="2" d="M68.88,-36C68.88,-36 16.12,-36 16.12,-36 10.12,-36 4.12,-30 4.12,-24 4.12,-24 4.12,-12 4.12,-12 4.12,-6 10.12,0 16.12,0 16.12,0 68.88,0 68.88,0 74.88,0 80.88,-6 80.88,-12 80.88,-12 80.88,-24 80.88,-24 80.88,-30 74.88,-36 68.88,-36"/>
<text text-anchor="middle" x="42.5" y="-14.88" font-family="sans" font-size="10.00">bcftools_call</text>
</g>
<!-- 1 -->
<g id="node2" class="node">
<title>1</title>
<path fill="none" stroke="#56a2d8" stroke-width="2" stroke-dasharray="5,2" d="M73,-180C73,-180 12,-180 12,-180 6,-180 0,-174 0,-168 0,-168 0,-156 0,-156 0,-150 6,-144 12,-144 12,-144 73,-144 73,-144 79,-144 85,-150 85,-156 85,-156 85,-168 85,-168 85,-174 79,-180 73,-180"/>
<text text-anchor="middle" x="42.5" y="-158.88" font-family="sans" font-size="10.00">samtools_sort</text>
</g>
<!-- 1&#45;&gt;0 -->
<g id="edge1" class="edge">
<title>1&#45;&gt;0</title>
<path fill="none" stroke="grey" stroke-width="2" d="M34.83,-143.22C30.89,-133.11 26.5,-120.08 24.5,-108 21.89,-92.21 21.89,-87.79 24.5,-72 25.76,-64.36 27.99,-56.33 30.45,-48.91"/>
<polygon fill="grey" stroke="grey" stroke-width="2" points="33.69,-50.22 33.8,-39.62 27.11,-47.84 33.69,-50.22"/>
</g>
<!-- 3 -->
<g id="node4" class="node">
<title>3</title>
<path fill="none" stroke="#c6d856" stroke-width="2" stroke-dasharray="5,2" d="M115.12,-108C115.12,-108 45.88,-108 45.88,-108 39.88,-108 33.88,-102 33.88,-96 33.88,-96 33.88,-84 33.88,-84 33.88,-78 39.88,-72 45.88,-72 45.88,-72 115.12,-72 115.12,-72 121.12,-72 127.12,-78 127.12,-84 127.12,-84 127.12,-96 127.12,-96 127.12,-102 121.12,-108 115.12,-108"/>
<text text-anchor="middle" x="80.5" y="-86.88" font-family="sans" font-size="10.00">samtools_index</text>
</g>
<!-- 1&#45;&gt;3 -->
<g id="edge4" class="edge">
<title>1&#45;&gt;3</title>
<path fill="none" stroke="grey" stroke-width="2" d="M52.09,-143.34C55.89,-136.34 60.35,-128.12 64.61,-120.28"/>
<polygon fill="grey" stroke="grey" stroke-width="2" points="67.64,-122.02 69.34,-111.56 61.49,-118.68 67.64,-122.02"/>
</g>
<!-- 2 -->
<g id="node3" class="node">
<title>2</title>
<path fill="none" stroke="#d85656" stroke-width="2" stroke-dasharray="5,2" d="M62.12,-252C62.12,-252 22.88,-252 22.88,-252 16.88,-252 10.88,-246 10.88,-240 10.88,-240 10.88,-228 10.88,-228 10.88,-222 16.88,-216 22.88,-216 22.88,-216 62.12,-216 62.12,-216 68.12,-216 74.12,-222 74.12,-228 74.12,-228 74.12,-240 74.12,-240 74.12,-246 68.12,-252 62.12,-252"/>
<text text-anchor="middle" x="42.5" y="-230.88" font-family="sans" font-size="10.00">bwa_map</text>
</g>
<!-- 2&#45;&gt;1 -->
<g id="edge3" class="edge">
<title>2&#45;&gt;1</title>
<path fill="none" stroke="grey" stroke-width="2" d="M42.5,-215.34C42.5,-208.75 42.5,-201.08 42.5,-193.67"/>
<polygon fill="grey" stroke="grey" stroke-width="2" points="46,-193.93 42.5,-183.93 39,-193.93 46,-193.93"/>
</g>
<!-- 3&#45;&gt;0 -->
<g id="edge2" class="edge">
<title>3&#45;&gt;0</title>
<path fill="none" stroke="grey" stroke-width="2" d="M70.91,-71.34C67.11,-64.34 62.65,-56.12 58.39,-48.28"/>
<polygon fill="grey" stroke="grey" stroke-width="2" points="61.51,-46.68 53.66,-39.56 55.36,-50.02 61.51,-46.68"/>
</g>
</g>
</svg>
